# xmcd CD database file
#
# Track frame offsets:
#	150
#	27482
#	47971
#	64562
#	91880
#	112369
#
# Disc length: 1716 seconds
#
# Revision: 8
# Processed by: cddbd v1.5.2PL0 Copyright (c) Steve Scherf et al.
# Submitted via: CDex 1.82
#
DISCID=5106b206
DTITLE=AKB48 - So long ! [TYPE-A]
DYEAR=2013
DGENRE=J-Pop
TTITLE0=So long !
TTITLE1=Waiting room
TTITLE2=Ruby
TTITLE3=So long ! (off vocal ver.)
TTITLE4=Waiting room (off vocal ver.)
TTITLE5=Ruby (off vocal ver.)
EXTD=YEAR: 2013
EXTT0=
EXTT1=
EXTT2=
EXTT3=
EXTT4=
EXTT5=
PLAYORDER=
